<svg xmlns="http://www.w3.org/2000/svg" width="64" height="64" viewBox="0 0 64 64">
  <!-- GENERATED by tools/gen_skin_svg.py from aloe.svg, family golden. Do not edit by hand:
       run `python tools/gen_skin_svg.py` and it reports any edit the parent and the
       golden ramp do not explain. Parent geometry is copied verbatim, paint is remapped
       onto the ramp, and the family motif is the appended group at the end. -->
  <!-- Salve Aloe: the eighth plant, and the first that repairs. Every other plant in the
       catalogue points at the lane or at the seeds; this one points at the garden's own
       damage, so it should read as something you keep NEAR the fighting rather than in it.

       Drawn as a top-down ROSETTE, which is the one silhouette the kit's projection gives
       away for free — a real aloe is a rosette seen from above, so the shape that is
       botanically right is also the shape the camera already wants. It is also the only
       plant here with radial symmetry: cob, mouth, disc, pad and seed head all have a
       business end, Mint is a splayed clump, and a ring of leaves closing on a centre is
       unlike all of them at a glance.

       Palette: SAND/PAPER, not foliage. Mint's header records the finding that
       GardenTheme.LEAF is Color(0.180, 0.800, 0.443) = #2ECC71 exactly, so a green sprite
       is drawn in the lawn's own hue and disappears into it. Mint answered that with
       blue-grey and the Nettle with orange; cream is the third answer and it is the right
       one on its own terms rather than merely the next unused row — a pale succulent reads
       as soothing beside the red maw and the gold cob, which is what this plant does.

       The seed packet also uses sand, and that is not a collision: a packet is a UI card in
       the side rack and this is a 64px sprite standing on grass. They are never adjacent. -->

  <!-- Outer whorl, drawn first and widest so the inner leaves overlap its joins. Eight
       leaves rather than six: an even count reads as a rosette, and eight is what closes
       the ring at this radius without the tips touching. Each leaf is a lozenge with a
       point, which is what a succulent leaf is from above. -->
  <g transform="translate(32,32)" stroke="#D0A218" stroke-width="2" stroke-linejoin="round" fill="#F5D36E">
    <g><path d="M0 -5 Q -8 -13 0 -23 Q 8 -13 0 -5 Z"/></g>
    <g transform="rotate(45)"><path d="M0 -5 Q -8 -13 0 -23 Q 8 -13 0 -5 Z"/></g>
    <g transform="rotate(90)"><path d="M0 -5 Q -8 -13 0 -23 Q 8 -13 0 -5 Z"/></g>
    <g transform="rotate(135)"><path d="M0 -5 Q -8 -13 0 -23 Q 8 -13 0 -5 Z"/></g>
    <g transform="rotate(180)"><path d="M0 -5 Q -8 -13 0 -23 Q 8 -13 0 -5 Z"/></g>
    <g transform="rotate(225)"><path d="M0 -5 Q -8 -13 0 -23 Q 8 -13 0 -5 Z"/></g>
    <g transform="rotate(270)"><path d="M0 -5 Q -8 -13 0 -23 Q 8 -13 0 -5 Z"/></g>
    <g transform="rotate(315)"><path d="M0 -5 Q -8 -13 0 -23 Q 8 -13 0 -5 Z"/></g>
  </g>

  <!-- Inner whorl, offset half a step so it sits in the gaps of the outer one, and in the
       light facet so the rosette has a centre rather than reading as one flat star. Five
       leaves, not eight: an odd inner count is what stops the two rings lining up into
       spokes. -->
  <g transform="translate(32,32) rotate(22)" stroke="#D0A218" stroke-width="1.6" stroke-linejoin="round" fill="#FCE8AA">
    <g><path d="M0 -3 Q -5 -8 0 -15 Q 5 -8 0 -3 Z"/></g>
    <g transform="rotate(72)"><path d="M0 -3 Q -5 -8 0 -15 Q 5 -8 0 -3 Z"/></g>
    <g transform="rotate(144)"><path d="M0 -3 Q -5 -8 0 -15 Q 5 -8 0 -3 Z"/></g>
    <g transform="rotate(216)"><path d="M0 -3 Q -5 -8 0 -15 Q 5 -8 0 -3 Z"/></g>
    <g transform="rotate(288)"><path d="M0 -3 Q -5 -8 0 -15 Q 5 -8 0 -3 Z"/></g>
  </g>

  <!-- The heart. One small filled disc closing the centre, in the rim shade — without it
       the five inner tips meet at a point and the middle of the sprite reads as a hole. -->
  <circle cx="32" cy="32" r="3.2" fill="#D0A218"/>
  <g id="skin_motif_golden" stroke-linejoin="round" stroke-linecap="round">
    <path d="M 6 19 Q 32 -10 58 19 L 55 20.8 Q 32 -4.8 9 20.8 Z"
          fill="#E8BC37" stroke="#8C6B09" stroke-width="1.6"/>
    <g fill="#F5D36E" stroke="#AF870E" stroke-width="1">
      <ellipse cx="11.2" cy="13.8" rx="3.2" ry="1.9" transform="rotate(-38 11.2 13.8)"/>
      <ellipse cx="52.8" cy="13.8" rx="3.2" ry="1.9" transform="rotate(38 52.8 13.8)"/>
      <ellipse cx="16.9" cy="9.4" rx="3.2" ry="1.9" transform="rotate(-24 16.9 9.4)"/>
      <ellipse cx="47.1" cy="9.4" rx="3.2" ry="1.9" transform="rotate(24 47.1 9.4)"/>
      <ellipse cx="22.6" cy="6.4" rx="3.2" ry="1.9" transform="rotate(-12 22.6 6.4)"/>
      <ellipse cx="41.4" cy="6.4" rx="3.2" ry="1.9" transform="rotate(12 41.4 6.4)"/>
    </g>
    <g fill="#FCE8AA" stroke="#AF870E" stroke-width="1">
      <ellipse cx="7" cy="22.6" rx="2.4" ry="1.7" transform="rotate(-35 7 22.6)"/>
      <ellipse cx="57" cy="22.6" rx="2.4" ry="1.7" transform="rotate(35 57 22.6)"/>
      <ellipse cx="7" cy="26.2" rx="2.4" ry="1.7" transform="rotate(-35 7 26.2)"/>
      <ellipse cx="57" cy="26.2" rx="2.4" ry="1.7" transform="rotate(35 57 26.2)"/>
      <ellipse cx="7" cy="29.8" rx="2.4" ry="1.7" transform="rotate(-35 7 29.8)"/>
      <ellipse cx="57" cy="29.8" rx="2.4" ry="1.7" transform="rotate(35 57 29.8)"/>
    </g>
    <rect x="11.5" y="58.5" width="41" height="2" rx="1"
          fill="#F5D36E" stroke="#8C6B09" stroke-width="1"/>
  </g>
</svg>
