<svg xmlns="http://www.w3.org/2000/svg" width="64" height="64" viewBox="0 0 64 64">
  <!-- GENERATED by tools/gen_skin_svg.py from bramble_chewed.svg, family frost. Do not edit by hand:
       run `python tools/gen_skin_svg.py` and it reports any edit the parent and the
       frost ramp do not explain. Parent geometry is copied verbatim, paint is remapped
       onto the ramp, and the family motif is the appended group at the end. -->
  <!-- Barrier Bramble, second of three frames: bitten but holding. Read art_src/bramble.svg
       first; everything about palette and about reading against the ROAD (a flat #BB8044,
       measured off towerDefense_tile050.png) is decided there and is not repeated.

       WHAT CHANGES, AND WHAT MAY NOT. Three constraints bound every frame in this set and
       all three are gates, not preferences:

         * BILATERAL CENTRING. test_content_is_bilaterally_centred measures the rendered
           content box midpoint against x = 32 with a 1.0 px tolerance. So damage is taken
           SYMMETRICALLY. Breaking one cane and leaving the other would read beautifully and
           fail the gate, and the failure would look like a rendering fault rather than a
           drawing decision.
         * THE STEM PIVOT. test_the_stem_pivot_is_the_bottom_of_the_art_not_the_bottom_of_
           the_png measures each sprite's painted base against Plant.STEM_PIVOT_Y inside a
           2 px family spread. So the canes are chewed from the TOP and the MIDDLE, never
           from the bottom: their end points stay where the whole frame put them. That is
           also the better drawing, since a bramble eaten down still sits on the ground.
         * THE PALETTE. Same two families as the whole frame, no third.

       THE PROGRESSION, stated once here for all three: whole (an arch plus a back arch,
       five leaves), chewed (the back arch gone, fewer thorns, three leaves), ragged (the
       arch bitten through in the middle). Each step removes rather than redraws, so the
       three read as one plant at three moments instead of three drawings. -->

  <!-- No back arch. It was the depth cue in the whole frame and it is the first thing to
       go: losing a whole element reads at 64 px where thinning a stroke does not. -->

  <!-- The two front canes, narrowed symmetrically from 24 to 21 and flattened. Same round
       caps at the same y, so the painted base does not move. -->
  <g transform="translate(32,36)">
    <g fill="none" stroke="#B9E4FA" stroke-width="4.2" stroke-linecap="round">
      <path d="M-21 12 Q-2 -3 21 10"/>
      <path d="M-19 18 Q2 4 21 16"/>
    </g>

    <!-- Half the thorns, and the ones kept are the outer pairs: a chewed edge loses its
         middle first, and keeping the outermost preserves the spiky silhouette that names
         the plant. -->
    <g fill="none" stroke="#50B3E4" stroke-width="1.6" stroke-linecap="round">
      <path d="M-15 7 L-17 2.5 M1 -2 L1 -6.5 M16 5 L18.5 1"/>
      <path d="M-12 14.5 L-14 10.5 M14 9.5 L16 5.5"/>
    </g>

    <!-- Three leaves, not five, and spaced so the remaining ink still straddles the
         centre line rather than clustering to one side. -->
    <g fill="#87CEF2" stroke="#147BAF" stroke-width="1.2" stroke-linejoin="round">
      <g transform="translate(-10,4) rotate(-124)">
        <path d="M0 0 Q4 -3.4 8.5 0 Q4 3.4 0 0 Z"/>
      </g>
      <g transform="translate(6,-1) rotate(-64)">
        <path d="M0 0 Q4 -3.4 8.5 0 Q4 3.4 0 0 Z"/>
      </g>
      <g transform="translate(11,13) rotate(58)">
        <path d="M0 0 Q4 -3.4 8.5 0 Q4 3.4 0 0 Z"/>
      </g>
    </g>
  </g>
  <g id="skin_motif_frost" stroke-linejoin="round" stroke-linecap="round">
    <g fill="#87CEF2" stroke="#0C618C" stroke-width="1.4">
      <path d="M 5.4 60 L 9 46 L 12.6 60 Z"/>
      <path d="M 51.4 60 L 55 46 L 58.6 60 Z"/>
      <path d="M 28.4 60 L 32 52 L 35.6 60 Z"/>
    </g>
    <g fill="none" stroke="#2896CD" stroke-width="1">
      <path d="M 9 49 L 9 58"/>
      <path d="M 55 49 L 55 58"/>
      <path d="M 32 54.5 L 32 58"/>
    </g>
    <path d="M 32 3.8 L 34.8 5.35 L 34.8 8.45 L 32 10 L 29.2 8.45 L 29.2 5.35 Z"
          fill="#B9E4FA" stroke="#147BAF" stroke-width="1.2"/>
    <path d="M 32 4.4 L 32 9.4" fill="none" stroke="#50B3E4" stroke-width="1"/>
  </g>
</svg>
