<svg xmlns="http://www.w3.org/2000/svg" width="64" height="64" viewBox="0 0 64 64">
  <!-- GENERATED by tools/gen_sport_svg.py from chomp_flower_gape.svg. Do not edit by hand:
       `python tools/gen_sport_svg.py --check` fails on any edit this file's
       parent does not explain. Geometry is copied verbatim; only paint moves. -->
  <!-- Chomp Flower, jaw at full gape: the single frame AT the moment of the bite,
       held for BITE_SQUASH_OUT_SECONDS (0.06s) and then replaced by the eating
       sprite for the chew (see ChompFlower._bite / _show_gape_sprite).

       plant-tower-defense-81g9, the other half of a player report — "the attack
       animation for the chomp flower doesn't really look like it's taking bites out
       of the bugs". The pest's half (three visible bites, the bug shrinking as it is
       eaten) is -h4v1 and shipped first. This is the flower's: the mouth had three
       textures and none of them was OPEN. It lunged and squashed while wearing the
       same closed head it wears while chewing, so the bite had no instant.

       The three frames now read as a sequence, and each is wider at the mouth than
       the last is closed:
         idle          maw r=13, teeth tucked
         GAPE (this)   maw r=19, teeth splayed to the rim, throat wide, mouth EMPTY
         eating        maw r=16, teeth splayed, a bitten fragment inside

       Empty on purpose. The gape is the frame BEFORE anything has been taken, so a
       meal drawn in it would be a bite that already happened — and the eating frame
       is the one that carries the fragment. -->

  <!-- leaves poking out below the petal ring -->
  <g transform="translate(32,32)" stroke="#2A3A05" stroke-width="2" stroke-linejoin="round" stroke-linecap="round">
    <g transform="rotate(125)">
      <path d="M6 0 Q 19 -9 31 -1 Q 19 8 6 0 Z" fill="#E7FCB6"/>
      <path d="M9 -0.5 Q 20 -2 29 -1.5" fill="none" stroke-width="1.4"/>
    </g>
    <g transform="rotate(55)">
      <path d="M6 0 Q 19 -9 31 -1 Q 19 8 6 0 Z" fill="#E7FCB6"/>
      <path d="M9 -0.5 Q 20 -2 29 -1.5" fill="none" stroke-width="1.4"/>
    </g>
  </g>

  <!-- petal ring: pushed further out and flatter still than the eating frame, so
       the whole head reads as hinged open rather than merely tipped -->
  <g fill="#FFE8FB" stroke="#F56EDE" stroke-width="2">
    <g transform="rotate(0 32 32)"><ellipse cx="32" cy="14.5" rx="7.8" ry="4.4"/></g>
    <g transform="rotate(40 32 32)"><ellipse cx="32" cy="14.5" rx="7.8" ry="4.4"/></g>
    <g transform="rotate(80 32 32)"><ellipse cx="32" cy="14.5" rx="7.8" ry="4.4"/></g>
    <g transform="rotate(120 32 32)"><ellipse cx="32" cy="14.5" rx="7.8" ry="4.4"/></g>
    <g transform="rotate(160 32 32)"><ellipse cx="32" cy="14.5" rx="7.8" ry="4.4"/></g>
    <g transform="rotate(200 32 32)"><ellipse cx="32" cy="14.5" rx="7.8" ry="4.4"/></g>
    <g transform="rotate(240 32 32)"><ellipse cx="32" cy="14.5" rx="7.8" ry="4.4"/></g>
    <g transform="rotate(280 32 32)"><ellipse cx="32" cy="14.5" rx="7.8" ry="4.4"/></g>
    <g transform="rotate(320 32 32)"><ellipse cx="32" cy="14.5" rx="7.8" ry="4.4"/></g>
  </g>

  <!-- maw at its widest: 19 against the eating frame's 16 and the idle 13. Outer
       edge with its stroke lands at 20, inside the 32px half-cell. -->
  <circle cx="32" cy="32" r="19" fill="#910C7B" stroke="#690859" stroke-width="2"/>
  <!-- the throat, deeper and larger than the chewing frame's: this is the frame you
       can see down -->
  <circle cx="32" cy="32" r="9" fill="#46063B"/>

  <!-- teeth, reaching to the rim. Longer and wider-based than the eating frame's,
       and there are ten rather than eight, so the gape reads as more mouth rather
       than the same mouth scaled. -->
  <g fill="#FFFFFF">
    <g transform="rotate(0 32 32)"><path d="M24.8 15 L39.2 15 L32 25 Z"/></g>
    <g transform="rotate(36 32 32)"><path d="M24.8 15 L39.2 15 L32 25 Z"/></g>
    <g transform="rotate(72 32 32)"><path d="M24.8 15 L39.2 15 L32 25 Z"/></g>
    <g transform="rotate(108 32 32)"><path d="M24.8 15 L39.2 15 L32 25 Z"/></g>
    <g transform="rotate(144 32 32)"><path d="M24.8 15 L39.2 15 L32 25 Z"/></g>
    <g transform="rotate(180 32 32)"><path d="M24.8 15 L39.2 15 L32 25 Z"/></g>
    <g transform="rotate(216 32 32)"><path d="M24.8 15 L39.2 15 L32 25 Z"/></g>
    <g transform="rotate(252 32 32)"><path d="M24.8 15 L39.2 15 L32 25 Z"/></g>
    <g transform="rotate(288 32 32)"><path d="M24.8 15 L39.2 15 L32 25 Z"/></g>
    <g transform="rotate(324 32 32)"><path d="M24.8 15 L39.2 15 L32 25 Z"/></g>
  </g>
</svg>
