<svg xmlns="http://www.w3.org/2000/svg" width="64" height="64" viewBox="0 0 64 64">
  <!-- GENERATED by tools/gen_skin_svg.py from chomp_flower_eating_late.svg, family sampler. Do not edit by hand:
       run `python tools/gen_skin_svg.py` and it reports any edit the parent and the
       sampler style do not explain. This is not the parent recoloured: every shape is
       redrawn in the style, and what survives of the parent is its geometry and the
       VALUE of its paint. -->
  <defs>
    <clipPath id="c1"><path d="M6 0 Q 19 -9 31 -1 Q 19 8 6 0 Z" transform="translate(32,32) rotate(125)"/></clipPath>
    <clipPath id="c2"><path d="M6 0 Q 19 -9 31 -1 Q 19 8 6 0 Z" transform="translate(32,32) rotate(55)"/></clipPath>
    <clipPath id="c3"><ellipse cx="32" cy="16" rx="7.5" ry="5.2" transform="rotate(0 32 32)"/></clipPath>
    <clipPath id="c4"><ellipse cx="32" cy="16" rx="7.5" ry="5.2" transform="rotate(40 32 32)"/></clipPath>
    <clipPath id="c5"><ellipse cx="32" cy="16" rx="7.5" ry="5.2" transform="rotate(80 32 32)"/></clipPath>
    <clipPath id="c6"><ellipse cx="32" cy="16" rx="7.5" ry="5.2" transform="rotate(120 32 32)"/></clipPath>
    <clipPath id="c7"><ellipse cx="32" cy="16" rx="7.5" ry="5.2" transform="rotate(160 32 32)"/></clipPath>
    <clipPath id="c8"><ellipse cx="32" cy="16" rx="7.5" ry="5.2" transform="rotate(200 32 32)"/></clipPath>
    <clipPath id="c9"><ellipse cx="32" cy="16" rx="7.5" ry="5.2" transform="rotate(240 32 32)"/></clipPath>
    <clipPath id="c10"><ellipse cx="32" cy="16" rx="7.5" ry="5.2" transform="rotate(280 32 32)"/></clipPath>
    <clipPath id="c11"><ellipse cx="32" cy="16" rx="7.5" ry="5.2" transform="rotate(320 32 32)"/></clipPath>
    <clipPath id="c12"><circle cx="32" cy="32" r="14"/></clipPath>
    <clipPath id="c13"><circle cx="32" cy="32" r="6"/></clipPath>
    <clipPath id="c14"><ellipse cx="32" cy="32.5" rx="2" ry="2.5"/></clipPath>
    <clipPath id="c15"><path d="M26 19.5 L38 19.5 L32 27 Z" transform="rotate(0 32 32)"/></clipPath>
    <clipPath id="c16"><path d="M26 19.5 L38 19.5 L32 27 Z" transform="rotate(45 32 32)"/></clipPath>
    <clipPath id="c17"><path d="M26 19.5 L38 19.5 L32 27 Z" transform="rotate(90 32 32)"/></clipPath>
    <clipPath id="c18"><path d="M26 19.5 L38 19.5 L32 27 Z" transform="rotate(135 32 32)"/></clipPath>
    <clipPath id="c19"><path d="M26 19.5 L38 19.5 L32 27 Z" transform="rotate(180 32 32)"/></clipPath>
    <clipPath id="c20"><path d="M26 19.5 L38 19.5 L32 27 Z" transform="rotate(225 32 32)"/></clipPath>
    <clipPath id="c21"><path d="M26 19.5 L38 19.5 L32 27 Z" transform="rotate(270 32 32)"/></clipPath>
    <clipPath id="c22"><path d="M26 19.5 L38 19.5 L32 27 Z" transform="rotate(315 32 32)"/></clipPath>
  </defs>
  <path d="M6 0 Q 19 -9 31 -1 Q 19 8 6 0 Z" fill="#E6DCC0" stroke="#2E4258" stroke-width="1.35" stroke-linecap="round" stroke-dasharray="1.7 1.3" transform="translate(32,32) rotate(125)"/>
  <path d="M24.742 36.915 L28.559 38.695" fill="none" stroke="#5C7B99" stroke-width="1" clip-path="url(#c1)" stroke-linecap="round" stroke-dasharray="1.5 1.15"/>
  <path d="M19.299 36.915 L28.559 41.233" fill="none" stroke="#5C7B99" stroke-width="1" clip-path="url(#c1)" stroke-linecap="round" stroke-dasharray="1.5 1.15"/>
  <path d="M15.038 37.466 L28.559 43.77" fill="none" stroke="#5C7B99" stroke-width="1" clip-path="url(#c1)" stroke-linecap="round" stroke-dasharray="1.5 1.15"/>
  <path d="M15.038 40.003 L28.559 46.308" fill="none" stroke="#5C7B99" stroke-width="1" clip-path="url(#c1)" stroke-linecap="round" stroke-dasharray="1.5 1.15"/>
  <path d="M15.038 42.541 L28.559 48.846" fill="none" stroke="#5C7B99" stroke-width="1" clip-path="url(#c1)" stroke-linecap="round" stroke-dasharray="1.5 1.15"/>
  <path d="M15.038 45.079 L28.559 51.384" fill="none" stroke="#5C7B99" stroke-width="1" clip-path="url(#c1)" stroke-linecap="round" stroke-dasharray="1.5 1.15"/>
  <path d="M15.038 47.617 L28.559 53.921" fill="none" stroke="#5C7B99" stroke-width="1" clip-path="url(#c1)" stroke-linecap="round" stroke-dasharray="1.5 1.15"/>
  <path d="M15.038 50.155 L28.559 56.459" fill="none" stroke="#5C7B99" stroke-width="1" clip-path="url(#c1)" stroke-linecap="round" stroke-dasharray="1.5 1.15"/>
  <path d="M15.038 52.692 L26.351 57.967" fill="none" stroke="#5C7B99" stroke-width="1" clip-path="url(#c1)" stroke-linecap="round" stroke-dasharray="1.5 1.15"/>
  <path d="M15.038 55.23 L20.908 57.967" fill="none" stroke="#5C7B99" stroke-width="1" clip-path="url(#c1)" stroke-linecap="round" stroke-dasharray="1.5 1.15"/>
  <path d="M15.038 57.768 L15.466 57.967" fill="none" stroke="#5C7B99" stroke-width="1" clip-path="url(#c1)" stroke-linecap="round" stroke-dasharray="1.5 1.15"/>
  <path d="M9 -0.5 Q 20 -2 29 -1.5" fill="none" stroke="#2E4258" stroke-width="1.4" stroke-linecap="round" stroke-dasharray="1.5 1.15" transform="translate(32,32) rotate(125)"/>
  <path d="M6 0 Q 19 -9 31 -1 Q 19 8 6 0 Z" fill="#E6DCC0" stroke="#2E4258" stroke-width="1.35" stroke-linecap="round" stroke-dasharray="1.7 1.3" transform="translate(32,32) rotate(55)"/>
  <path d="M50.301 36.915 L50.6 42.622" fill="none" stroke="#5C7B99" stroke-width="1" clip-path="url(#c2)" stroke-linecap="round" stroke-dasharray="1.5 1.15"/>
  <path d="M47.998 36.915 L49.041 56.82" fill="none" stroke="#5C7B99" stroke-width="1" clip-path="url(#c2)" stroke-linecap="round" stroke-dasharray="1.5 1.15"/>
  <path d="M45.695 36.915 L46.738 56.82" fill="none" stroke="#5C7B99" stroke-width="1" clip-path="url(#c2)" stroke-linecap="round" stroke-dasharray="1.5 1.15"/>
  <path d="M43.391 36.915 L44.435 56.82" fill="none" stroke="#5C7B99" stroke-width="1" clip-path="url(#c2)" stroke-linecap="round" stroke-dasharray="1.5 1.15"/>
  <path d="M41.088 36.915 L42.131 56.82" fill="none" stroke="#5C7B99" stroke-width="1" clip-path="url(#c2)" stroke-linecap="round" stroke-dasharray="1.5 1.15"/>
  <path d="M38.785 36.915 L39.828 56.82" fill="none" stroke="#5C7B99" stroke-width="1" clip-path="url(#c2)" stroke-linecap="round" stroke-dasharray="1.5 1.15"/>
  <path d="M36.482 36.915 L37.525 56.82" fill="none" stroke="#5C7B99" stroke-width="1" clip-path="url(#c2)" stroke-linecap="round" stroke-dasharray="1.5 1.15"/>
  <path d="M9 -0.5 Q 20 -2 29 -1.5" fill="none" stroke="#2E4258" stroke-width="1.4" stroke-linecap="round" stroke-dasharray="1.5 1.15" transform="translate(32,32) rotate(55)"/>
  <ellipse cx="32" cy="16" rx="7.5" ry="5.2" fill="#E6DCC0" stroke="#2E4258" stroke-width="1.35" stroke-linecap="round" stroke-dasharray="1.7 1.3" transform="rotate(0 32 32)"/>
  <path d="M39.5 19.198 L36.168 21.2" fill="none" stroke="#5C7B99" stroke-width="1" clip-path="url(#c3)" stroke-linecap="round" stroke-dasharray="1.5 1.15"/>
  <path d="M39.5 16.515 L31.703 21.2" fill="none" stroke="#5C7B99" stroke-width="1" clip-path="url(#c3)" stroke-linecap="round" stroke-dasharray="1.5 1.15"/>
  <path d="M39.5 13.832 L27.237 21.2" fill="none" stroke="#5C7B99" stroke-width="1" clip-path="url(#c3)" stroke-linecap="round" stroke-dasharray="1.5 1.15"/>
  <path d="M39.5 11.148 L24.5 20.161" fill="none" stroke="#5C7B99" stroke-width="1" clip-path="url(#c3)" stroke-linecap="round" stroke-dasharray="1.5 1.15"/>
  <path d="M35.614 10.8 L24.5 17.478" fill="none" stroke="#5C7B99" stroke-width="1" clip-path="url(#c3)" stroke-linecap="round" stroke-dasharray="1.5 1.15"/>
  <path d="M31.148 10.8 L24.5 14.795" fill="none" stroke="#5C7B99" stroke-width="1" clip-path="url(#c3)" stroke-linecap="round" stroke-dasharray="1.5 1.15"/>
  <path d="M26.683 10.8 L24.5 12.111" fill="none" stroke="#5C7B99" stroke-width="1" clip-path="url(#c3)" stroke-linecap="round" stroke-dasharray="1.5 1.15"/>
  <ellipse cx="32" cy="16" rx="7.5" ry="5.2" fill="#E6DCC0" stroke="#2E4258" stroke-width="1.35" stroke-linecap="round" stroke-dasharray="1.7 1.3" transform="rotate(40 32 32)"/>
  <path d="M35.638 13.8 L48.931 13.8" fill="none" stroke="#5C7B99" stroke-width="1" clip-path="url(#c4)" stroke-linecap="round" stroke-dasharray="1.5 1.15"/>
  <path d="M35.638 16.1 L48.931 16.1" fill="none" stroke="#5C7B99" stroke-width="1" clip-path="url(#c4)" stroke-linecap="round" stroke-dasharray="1.5 1.15"/>
  <path d="M35.638 18.4 L48.931 18.4" fill="none" stroke="#5C7B99" stroke-width="1" clip-path="url(#c4)" stroke-linecap="round" stroke-dasharray="1.5 1.15"/>
  <path d="M35.638 20.7 L48.931 20.7" fill="none" stroke="#5C7B99" stroke-width="1" clip-path="url(#c4)" stroke-linecap="round" stroke-dasharray="1.5 1.15"/>
  <path d="M35.638 23 L48.931 23" fill="none" stroke="#5C7B99" stroke-width="1" clip-path="url(#c4)" stroke-linecap="round" stroke-dasharray="1.5 1.15"/>
  <path d="M35.638 25.3 L48.931 25.3" fill="none" stroke="#5C7B99" stroke-width="1" clip-path="url(#c4)" stroke-linecap="round" stroke-dasharray="1.5 1.15"/>
  <ellipse cx="32" cy="16" rx="7.5" ry="5.2" fill="#E6DCC0" stroke="#2E4258" stroke-width="1.35" stroke-linecap="round" stroke-dasharray="1.7 1.3" transform="rotate(80 32 32)"/>
  <path d="M49.646 21.781 L53.041 23.82" fill="none" stroke="#5C7B99" stroke-width="1" clip-path="url(#c5)" stroke-linecap="round" stroke-dasharray="1.5 1.15"/>
  <path d="M45.18 21.781 L53.041 26.504" fill="none" stroke="#5C7B99" stroke-width="1" clip-path="url(#c5)" stroke-linecap="round" stroke-dasharray="1.5 1.15"/>
  <path d="M42.473 22.837 L53.041 29.187" fill="none" stroke="#5C7B99" stroke-width="1" clip-path="url(#c5)" stroke-linecap="round" stroke-dasharray="1.5 1.15"/>
  <path d="M42.473 25.52 L53.041 31.87" fill="none" stroke="#5C7B99" stroke-width="1" clip-path="url(#c5)" stroke-linecap="round" stroke-dasharray="1.5 1.15"/>
  <path d="M42.473 28.204 L53.041 34.553" fill="none" stroke="#5C7B99" stroke-width="1" clip-path="url(#c5)" stroke-linecap="round" stroke-dasharray="1.5 1.15"/>
  <path d="M42.473 30.887 L52.086 36.663" fill="none" stroke="#5C7B99" stroke-width="1" clip-path="url(#c5)" stroke-linecap="round" stroke-dasharray="1.5 1.15"/>
  <path d="M42.473 33.57 L47.62 36.663" fill="none" stroke="#5C7B99" stroke-width="1" clip-path="url(#c5)" stroke-linecap="round" stroke-dasharray="1.5 1.15"/>
  <path d="M42.473 36.253 L43.154 36.663" fill="none" stroke="#5C7B99" stroke-width="1" clip-path="url(#c5)" stroke-linecap="round" stroke-dasharray="1.5 1.15"/>
  <ellipse cx="32" cy="16" rx="7.5" ry="5.2" fill="#E6DCC0" stroke="#2E4258" stroke-width="1.35" stroke-linecap="round" stroke-dasharray="1.7 1.3" transform="rotate(120 32 32)"/>
  <path d="M51.412 33.004 L51.717 33.576" fill="none" stroke="#5C7B99" stroke-width="1" clip-path="url(#c6)" stroke-linecap="round" stroke-dasharray="1.5 1.15"/>
  <path d="M48.807 33.004 L51.717 38.475" fill="none" stroke="#5C7B99" stroke-width="1" clip-path="url(#c6)" stroke-linecap="round" stroke-dasharray="1.5 1.15"/>
  <path d="M46.202 33.004 L51.717 43.375" fill="none" stroke="#5C7B99" stroke-width="1" clip-path="url(#c6)" stroke-linecap="round" stroke-dasharray="1.5 1.15"/>
  <path d="M43.598 33.004 L51.037 46.996" fill="none" stroke="#5C7B99" stroke-width="1" clip-path="url(#c6)" stroke-linecap="round" stroke-dasharray="1.5 1.15"/>
  <path d="M40.993 33.004 L48.433 46.996" fill="none" stroke="#5C7B99" stroke-width="1" clip-path="url(#c6)" stroke-linecap="round" stroke-dasharray="1.5 1.15"/>
  <path d="M39.996 36.029 L45.828 46.996" fill="none" stroke="#5C7B99" stroke-width="1" clip-path="url(#c6)" stroke-linecap="round" stroke-dasharray="1.5 1.15"/>
  <path d="M39.996 40.928 L43.223 46.996" fill="none" stroke="#5C7B99" stroke-width="1" clip-path="url(#c6)" stroke-linecap="round" stroke-dasharray="1.5 1.15"/>
  <path d="M39.996 45.827 L40.618 46.996" fill="none" stroke="#5C7B99" stroke-width="1" clip-path="url(#c6)" stroke-linecap="round" stroke-dasharray="1.5 1.15"/>
  <ellipse cx="32" cy="16" rx="7.5" ry="5.2" fill="#E6DCC0" stroke="#2E4258" stroke-width="1.35" stroke-linecap="round" stroke-dasharray="1.7 1.3" transform="rotate(160 32 32)"/>
  <path d="M43.887 41.516 L43.309 52.554" fill="none" stroke="#5C7B99" stroke-width="1" clip-path="url(#c7)" stroke-linecap="round" stroke-dasharray="1.5 1.15"/>
  <path d="M41.584 41.516 L41.006 52.554" fill="none" stroke="#5C7B99" stroke-width="1" clip-path="url(#c7)" stroke-linecap="round" stroke-dasharray="1.5 1.15"/>
  <path d="M39.281 41.516 L38.703 52.554" fill="none" stroke="#5C7B99" stroke-width="1" clip-path="url(#c7)" stroke-linecap="round" stroke-dasharray="1.5 1.15"/>
  <path d="M36.978 41.516 L36.399 52.554" fill="none" stroke="#5C7B99" stroke-width="1" clip-path="url(#c7)" stroke-linecap="round" stroke-dasharray="1.5 1.15"/>
  <path d="M34.675 41.516 L34.096 52.554" fill="none" stroke="#5C7B99" stroke-width="1" clip-path="url(#c7)" stroke-linecap="round" stroke-dasharray="1.5 1.15"/>
  <path d="M32.372 41.516 L31.793 52.554" fill="none" stroke="#5C7B99" stroke-width="1" clip-path="url(#c7)" stroke-linecap="round" stroke-dasharray="1.5 1.15"/>
  <ellipse cx="32" cy="16" rx="7.5" ry="5.2" fill="#E6DCC0" stroke="#2E4258" stroke-width="1.35" stroke-linecap="round" stroke-dasharray="1.7 1.3" transform="rotate(200 32 32)"/>
  <path d="M33.796 48.609 L31.135 52.554" fill="none" stroke="#5C7B99" stroke-width="1" clip-path="url(#c8)" stroke-linecap="round" stroke-dasharray="1.5 1.15"/>
  <path d="M33.796 44.496 L28.361 52.554" fill="none" stroke="#5C7B99" stroke-width="1" clip-path="url(#c8)" stroke-linecap="round" stroke-dasharray="1.5 1.15"/>
  <path d="M33.032 41.516 L25.587 52.554" fill="none" stroke="#5C7B99" stroke-width="1" clip-path="url(#c8)" stroke-linecap="round" stroke-dasharray="1.5 1.15"/>
  <path d="M30.257 41.516 L22.812 52.554" fill="none" stroke="#5C7B99" stroke-width="1" clip-path="url(#c8)" stroke-linecap="round" stroke-dasharray="1.5 1.15"/>
  <path d="M27.483 41.516 L20.038 52.554" fill="none" stroke="#5C7B99" stroke-width="1" clip-path="url(#c8)" stroke-linecap="round" stroke-dasharray="1.5 1.15"/>
  <path d="M24.709 41.516 L19.259 49.596" fill="none" stroke="#5C7B99" stroke-width="1" clip-path="url(#c8)" stroke-linecap="round" stroke-dasharray="1.5 1.15"/>
  <path d="M21.934 41.516 L19.259 45.483" fill="none" stroke="#5C7B99" stroke-width="1" clip-path="url(#c8)" stroke-linecap="round" stroke-dasharray="1.5 1.15"/>
  <ellipse cx="32" cy="16" rx="7.5" ry="5.2" fill="#E6DCC0" stroke="#2E4258" stroke-width="1.35" stroke-linecap="round" stroke-dasharray="1.7 1.3" transform="rotate(240 32 32)"/>
  <path d="M24.004 44.638 L18.946 46.996" fill="none" stroke="#5C7B99" stroke-width="1" clip-path="url(#c9)" stroke-linecap="round" stroke-dasharray="1.5 1.15"/>
  <path d="M24.004 42.1 L13.504 46.996" fill="none" stroke="#5C7B99" stroke-width="1" clip-path="url(#c9)" stroke-linecap="round" stroke-dasharray="1.5 1.15"/>
  <path d="M24.004 39.562 L12.283 45.028" fill="none" stroke="#5C7B99" stroke-width="1" clip-path="url(#c9)" stroke-linecap="round" stroke-dasharray="1.5 1.15"/>
  <path d="M24.004 37.024 L12.283 42.49" fill="none" stroke="#5C7B99" stroke-width="1" clip-path="url(#c9)" stroke-linecap="round" stroke-dasharray="1.5 1.15"/>
  <path d="M24.004 34.487 L12.283 39.952" fill="none" stroke="#5C7B99" stroke-width="1" clip-path="url(#c9)" stroke-linecap="round" stroke-dasharray="1.5 1.15"/>
  <path d="M21.742 33.004 L12.283 37.414" fill="none" stroke="#5C7B99" stroke-width="1" clip-path="url(#c9)" stroke-linecap="round" stroke-dasharray="1.5 1.15"/>
  <path d="M16.299 33.004 L12.283 34.876" fill="none" stroke="#5C7B99" stroke-width="1" clip-path="url(#c9)" stroke-linecap="round" stroke-dasharray="1.5 1.15"/>
  <ellipse cx="32" cy="16" rx="7.5" ry="5.2" fill="#E6DCC0" stroke="#2E4258" stroke-width="1.35" stroke-linecap="round" stroke-dasharray="1.7 1.3" transform="rotate(280 32 32)"/>
  <path d="M10.959 21.966 L21.527 23.077" fill="none" stroke="#5C7B99" stroke-width="1" clip-path="url(#c10)" stroke-linecap="round" stroke-dasharray="1.5 1.15"/>
  <path d="M10.959 24.279 L21.527 25.389" fill="none" stroke="#5C7B99" stroke-width="1" clip-path="url(#c10)" stroke-linecap="round" stroke-dasharray="1.5 1.15"/>
  <path d="M10.959 26.591 L21.527 27.702" fill="none" stroke="#5C7B99" stroke-width="1" clip-path="url(#c10)" stroke-linecap="round" stroke-dasharray="1.5 1.15"/>
  <path d="M10.959 28.904 L21.527 30.015" fill="none" stroke="#5C7B99" stroke-width="1" clip-path="url(#c10)" stroke-linecap="round" stroke-dasharray="1.5 1.15"/>
  <path d="M10.959 31.217 L21.527 32.327" fill="none" stroke="#5C7B99" stroke-width="1" clip-path="url(#c10)" stroke-linecap="round" stroke-dasharray="1.5 1.15"/>
  <path d="M10.959 33.529 L21.527 34.64" fill="none" stroke="#5C7B99" stroke-width="1" clip-path="url(#c10)" stroke-linecap="round" stroke-dasharray="1.5 1.15"/>
  <path d="M10.959 35.842 L18.768 36.663" fill="none" stroke="#5C7B99" stroke-width="1" clip-path="url(#c10)" stroke-linecap="round" stroke-dasharray="1.5 1.15"/>
  <ellipse cx="32" cy="16" rx="7.5" ry="5.2" fill="#E6DCC0" stroke="#2E4258" stroke-width="1.35" stroke-linecap="round" stroke-dasharray="1.7 1.3" transform="rotate(320 32 32)"/>
  <path d="M25.545 13.49 L28.362 15.613" fill="none" stroke="#5C7B99" stroke-width="1" clip-path="url(#c11)" stroke-linecap="round" stroke-dasharray="1.5 1.15"/>
  <path d="M21.723 13.49 L28.362 18.493" fill="none" stroke="#5C7B99" stroke-width="1" clip-path="url(#c11)" stroke-linecap="round" stroke-dasharray="1.5 1.15"/>
  <path d="M17.901 13.49 L28.362 21.373" fill="none" stroke="#5C7B99" stroke-width="1" clip-path="url(#c11)" stroke-linecap="round" stroke-dasharray="1.5 1.15"/>
  <path d="M15.069 14.235 L28.362 24.252" fill="none" stroke="#5C7B99" stroke-width="1" clip-path="url(#c11)" stroke-linecap="round" stroke-dasharray="1.5 1.15"/>
  <path d="M15.069 17.115 L26.856 25.997" fill="none" stroke="#5C7B99" stroke-width="1" clip-path="url(#c11)" stroke-linecap="round" stroke-dasharray="1.5 1.15"/>
  <path d="M15.069 19.995 L23.034 25.997" fill="none" stroke="#5C7B99" stroke-width="1" clip-path="url(#c11)" stroke-linecap="round" stroke-dasharray="1.5 1.15"/>
  <path d="M15.069 22.875 L19.212 25.997" fill="none" stroke="#5C7B99" stroke-width="1" clip-path="url(#c11)" stroke-linecap="round" stroke-dasharray="1.5 1.15"/>
  <path d="M15.069 25.754 L15.39 25.997" fill="none" stroke="#5C7B99" stroke-width="1" clip-path="url(#c11)" stroke-linecap="round" stroke-dasharray="1.5 1.15"/>
  <circle cx="32" cy="32" r="14" fill="#CDBF9C" stroke="#2E4258" stroke-width="1.35" stroke-linecap="round" stroke-dasharray="1.7 1.3"/>
  <path d="M44.482 18 L46 21.757" fill="none" stroke="#2E4258" stroke-width="1" clip-path="url(#c12)" stroke-linecap="round" stroke-dasharray="1.5 1.15"/>
  <path d="M42.001 18 L46 27.897" fill="none" stroke="#2E4258" stroke-width="1" clip-path="url(#c12)" stroke-linecap="round" stroke-dasharray="1.5 1.15"/>
  <path d="M39.521 18 L46 34.037" fill="none" stroke="#2E4258" stroke-width="1" clip-path="url(#c12)" stroke-linecap="round" stroke-dasharray="1.5 1.15"/>
  <path d="M37.04 18 L46 40.177" fill="none" stroke="#2E4258" stroke-width="1" clip-path="url(#c12)" stroke-linecap="round" stroke-dasharray="1.5 1.15"/>
  <path d="M34.559 18 L45.872 46" fill="none" stroke="#2E4258" stroke-width="1" clip-path="url(#c12)" stroke-linecap="round" stroke-dasharray="1.5 1.15"/>
  <path d="M32.079 18 L43.392 46" fill="none" stroke="#2E4258" stroke-width="1" clip-path="url(#c12)" stroke-linecap="round" stroke-dasharray="1.5 1.15"/>
  <path d="M29.598 18 L40.911 46" fill="none" stroke="#2E4258" stroke-width="1" clip-path="url(#c12)" stroke-linecap="round" stroke-dasharray="1.5 1.15"/>
  <path d="M27.118 18 L38.43 46" fill="none" stroke="#2E4258" stroke-width="1" clip-path="url(#c12)" stroke-linecap="round" stroke-dasharray="1.5 1.15"/>
  <path d="M24.637 18 L35.95 46" fill="none" stroke="#2E4258" stroke-width="1" clip-path="url(#c12)" stroke-linecap="round" stroke-dasharray="1.5 1.15"/>
  <path d="M22.156 18 L33.469 46" fill="none" stroke="#2E4258" stroke-width="1" clip-path="url(#c12)" stroke-linecap="round" stroke-dasharray="1.5 1.15"/>
  <path d="M19.676 18 L30.988 46" fill="none" stroke="#2E4258" stroke-width="1" clip-path="url(#c12)" stroke-linecap="round" stroke-dasharray="1.5 1.15"/>
  <path d="M18 19.992 L28.508 46" fill="none" stroke="#2E4258" stroke-width="1" clip-path="url(#c12)" stroke-linecap="round" stroke-dasharray="1.5 1.15"/>
  <path d="M18 26.132 L26.027 46" fill="none" stroke="#2E4258" stroke-width="1" clip-path="url(#c12)" stroke-linecap="round" stroke-dasharray="1.5 1.15"/>
  <path d="M18 32.272 L23.546 46" fill="none" stroke="#2E4258" stroke-width="1" clip-path="url(#c12)" stroke-linecap="round" stroke-dasharray="1.5 1.15"/>
  <path d="M18 38.412 L21.066 46" fill="none" stroke="#2E4258" stroke-width="1" clip-path="url(#c12)" stroke-linecap="round" stroke-dasharray="1.5 1.15"/>
  <path d="M18 44.552 L18.585 46" fill="none" stroke="#2E4258" stroke-width="1" clip-path="url(#c12)" stroke-linecap="round" stroke-dasharray="1.5 1.15"/>
  <circle cx="32" cy="32" r="6" fill="#CDBF9C" stroke="#2E4258" stroke-width="1.35" stroke-linecap="round" stroke-dasharray="1.7 1.3"/>
  <path d="M37.798 26 L35.897 38" fill="none" stroke="#2E4258" stroke-width="1" clip-path="url(#c13)" stroke-linecap="round" stroke-dasharray="1.5 1.15"/>
  <path d="M35.469 26 L33.569 38" fill="none" stroke="#2E4258" stroke-width="1" clip-path="url(#c13)" stroke-linecap="round" stroke-dasharray="1.5 1.15"/>
  <path d="M33.141 26 L31.24 38" fill="none" stroke="#2E4258" stroke-width="1" clip-path="url(#c13)" stroke-linecap="round" stroke-dasharray="1.5 1.15"/>
  <path d="M30.812 26 L28.911 38" fill="none" stroke="#2E4258" stroke-width="1" clip-path="url(#c13)" stroke-linecap="round" stroke-dasharray="1.5 1.15"/>
  <path d="M28.483 26 L26.583 38" fill="none" stroke="#2E4258" stroke-width="1" clip-path="url(#c13)" stroke-linecap="round" stroke-dasharray="1.5 1.15"/>
  <path d="M26.155 26 L26 26.977" fill="none" stroke="#2E4258" stroke-width="1" clip-path="url(#c13)" stroke-linecap="round" stroke-dasharray="1.5 1.15"/>
  <ellipse cx="32" cy="32.5" rx="2" ry="2.5" fill="#CDBF9C" stroke="#2E4258" stroke-width="1.35" stroke-linecap="round" stroke-dasharray="1.7 1.3"/>
  <path d="M34 34.622 L33.683 35" fill="none" stroke="#2E4258" stroke-width="1" clip-path="url(#c14)" stroke-linecap="round" stroke-dasharray="1.5 1.15"/>
  <path d="M34 31.044 L30.68 35" fill="none" stroke="#2E4258" stroke-width="1" clip-path="url(#c14)" stroke-linecap="round" stroke-dasharray="1.5 1.15"/>
  <path d="M31.873 30 L30 32.233" fill="none" stroke="#2E4258" stroke-width="1" clip-path="url(#c14)" stroke-linecap="round" stroke-dasharray="1.5 1.15"/>
  <path d="M26 19.5 L38 19.5 L32 27 Z" fill="#E6DCC0" stroke="#2E4258" stroke-width="1.35" stroke-linecap="round" stroke-dasharray="1.7 1.3" transform="rotate(0 32 32)"/>
  <path d="M38 25.836 L34.619 27" fill="none" stroke="#5C7B99" stroke-width="1" clip-path="url(#c15)" stroke-linecap="round" stroke-dasharray="1.5 1.15"/>
  <path d="M38 23.403 L27.555 27" fill="none" stroke="#5C7B99" stroke-width="1" clip-path="url(#c15)" stroke-linecap="round" stroke-dasharray="1.5 1.15"/>
  <path d="M38 20.971 L26 25.103" fill="none" stroke="#5C7B99" stroke-width="1" clip-path="url(#c15)" stroke-linecap="round" stroke-dasharray="1.5 1.15"/>
  <path d="M35.207 19.5 L26 22.67" fill="none" stroke="#5C7B99" stroke-width="1" clip-path="url(#c15)" stroke-linecap="round" stroke-dasharray="1.5 1.15"/>
  <path d="M28.143 19.5 L26 20.238" fill="none" stroke="#5C7B99" stroke-width="1" clip-path="url(#c15)" stroke-linecap="round" stroke-dasharray="1.5 1.15"/>
  <path d="M26 19.5 L38 19.5 L32 27 Z" fill="#E6DCC0" stroke="#2E4258" stroke-width="1.35" stroke-linecap="round" stroke-dasharray="1.7 1.3" transform="rotate(45 32 32)"/>
  <path d="M35.536 19.31 L45.081 21.339" fill="none" stroke="#5C7B99" stroke-width="1" clip-path="url(#c16)" stroke-linecap="round" stroke-dasharray="1.5 1.15"/>
  <path d="M35.536 21.662 L45.081 23.691" fill="none" stroke="#5C7B99" stroke-width="1" clip-path="url(#c16)" stroke-linecap="round" stroke-dasharray="1.5 1.15"/>
  <path d="M35.536 24.013 L45.081 26.042" fill="none" stroke="#5C7B99" stroke-width="1" clip-path="url(#c16)" stroke-linecap="round" stroke-dasharray="1.5 1.15"/>
  <path d="M35.536 26.364 L45.081 28.393" fill="none" stroke="#5C7B99" stroke-width="1" clip-path="url(#c16)" stroke-linecap="round" stroke-dasharray="1.5 1.15"/>
  <path d="M26 19.5 L38 19.5 L32 27 Z" fill="#E6DCC0" stroke="#2E4258" stroke-width="1.35" stroke-linecap="round" stroke-dasharray="1.7 1.3" transform="rotate(90 32 32)"/>
  <path d="M41.371 26 L44.5 28.918" fill="none" stroke="#5C7B99" stroke-width="1" clip-path="url(#c17)" stroke-linecap="round" stroke-dasharray="1.5 1.15"/>
  <path d="M37.999 26 L44.5 32.062" fill="none" stroke="#5C7B99" stroke-width="1" clip-path="url(#c17)" stroke-linecap="round" stroke-dasharray="1.5 1.15"/>
  <path d="M37 28.213 L44.5 35.207" fill="none" stroke="#5C7B99" stroke-width="1" clip-path="url(#c17)" stroke-linecap="round" stroke-dasharray="1.5 1.15"/>
  <path d="M37 31.358 L44.122 38" fill="none" stroke="#5C7B99" stroke-width="1" clip-path="url(#c17)" stroke-linecap="round" stroke-dasharray="1.5 1.15"/>
  <path d="M37 34.503 L40.75 38" fill="none" stroke="#5C7B99" stroke-width="1" clip-path="url(#c17)" stroke-linecap="round" stroke-dasharray="1.5 1.15"/>
  <path d="M37 37.648 L37.378 38" fill="none" stroke="#5C7B99" stroke-width="1" clip-path="url(#c17)" stroke-linecap="round" stroke-dasharray="1.5 1.15"/>
  <path d="M26 19.5 L38 19.5 L32 27 Z" fill="#E6DCC0" stroke="#2E4258" stroke-width="1.35" stroke-linecap="round" stroke-dasharray="1.7 1.3" transform="rotate(135 32 32)"/>
  <path d="M43.687 35.536 L45.081 40.398" fill="none" stroke="#5C7B99" stroke-width="1" clip-path="url(#c18)" stroke-linecap="round" stroke-dasharray="1.5 1.15"/>
  <path d="M41.295 35.536 L44.032 45.081" fill="none" stroke="#5C7B99" stroke-width="1" clip-path="url(#c18)" stroke-linecap="round" stroke-dasharray="1.5 1.15"/>
  <path d="M38.902 35.536 L41.639 45.081" fill="none" stroke="#5C7B99" stroke-width="1" clip-path="url(#c18)" stroke-linecap="round" stroke-dasharray="1.5 1.15"/>
  <path d="M36.509 35.536 L39.246 45.081" fill="none" stroke="#5C7B99" stroke-width="1" clip-path="url(#c18)" stroke-linecap="round" stroke-dasharray="1.5 1.15"/>
  <path d="M35.536 40.484 L36.854 45.081" fill="none" stroke="#5C7B99" stroke-width="1" clip-path="url(#c18)" stroke-linecap="round" stroke-dasharray="1.5 1.15"/>
  <path d="M26 19.5 L38 19.5 L32 27 Z" fill="#E6DCC0" stroke="#2E4258" stroke-width="1.35" stroke-linecap="round" stroke-dasharray="1.7 1.3" transform="rotate(180 32 32)"/>
  <path d="M37.709 37 L35.699 44.5" fill="none" stroke="#5C7B99" stroke-width="1" clip-path="url(#c19)" stroke-linecap="round" stroke-dasharray="1.5 1.15"/>
  <path d="M35.327 37 L33.318 44.5" fill="none" stroke="#5C7B99" stroke-width="1" clip-path="url(#c19)" stroke-linecap="round" stroke-dasharray="1.5 1.15"/>
  <path d="M32.946 37 L30.937 44.5" fill="none" stroke="#5C7B99" stroke-width="1" clip-path="url(#c19)" stroke-linecap="round" stroke-dasharray="1.5 1.15"/>
  <path d="M30.565 37 L28.556 44.5" fill="none" stroke="#5C7B99" stroke-width="1" clip-path="url(#c19)" stroke-linecap="round" stroke-dasharray="1.5 1.15"/>
  <path d="M28.184 37 L26.174 44.5" fill="none" stroke="#5C7B99" stroke-width="1" clip-path="url(#c19)" stroke-linecap="round" stroke-dasharray="1.5 1.15"/>
  <path d="M26 19.5 L38 19.5 L32 27 Z" fill="#E6DCC0" stroke="#2E4258" stroke-width="1.35" stroke-linecap="round" stroke-dasharray="1.7 1.3" transform="rotate(225 32 32)"/>
  <path d="M28.464 42.854 L26.158 45.081" fill="none" stroke="#5C7B99" stroke-width="1" clip-path="url(#c20)" stroke-linecap="round" stroke-dasharray="1.5 1.15"/>
  <path d="M28.464 39.657 L22.847 45.081" fill="none" stroke="#5C7B99" stroke-width="1" clip-path="url(#c20)" stroke-linecap="round" stroke-dasharray="1.5 1.15"/>
  <path d="M28.464 36.46 L19.536 45.081" fill="none" stroke="#5C7B99" stroke-width="1" clip-path="url(#c20)" stroke-linecap="round" stroke-dasharray="1.5 1.15"/>
  <path d="M26.11 35.536 L18.919 42.481" fill="none" stroke="#5C7B99" stroke-width="1" clip-path="url(#c20)" stroke-linecap="round" stroke-dasharray="1.5 1.15"/>
  <path d="M22.8 35.536 L18.919 39.283" fill="none" stroke="#5C7B99" stroke-width="1" clip-path="url(#c20)" stroke-linecap="round" stroke-dasharray="1.5 1.15"/>
  <path d="M19.489 35.536 L18.919 36.086" fill="none" stroke="#5C7B99" stroke-width="1" clip-path="url(#c20)" stroke-linecap="round" stroke-dasharray="1.5 1.15"/>
  <path d="M26 19.5 L38 19.5 L32 27 Z" fill="#E6DCC0" stroke="#2E4258" stroke-width="1.35" stroke-linecap="round" stroke-dasharray="1.7 1.3" transform="rotate(270 32 32)"/>
  <path d="M27 36.256 L19.5 37.987" fill="none" stroke="#5C7B99" stroke-width="1" clip-path="url(#c21)" stroke-linecap="round" stroke-dasharray="1.5 1.15"/>
  <path d="M27 33.895 L19.5 35.627" fill="none" stroke="#5C7B99" stroke-width="1" clip-path="url(#c21)" stroke-linecap="round" stroke-dasharray="1.5 1.15"/>
  <path d="M27 31.535 L19.5 33.266" fill="none" stroke="#5C7B99" stroke-width="1" clip-path="url(#c21)" stroke-linecap="round" stroke-dasharray="1.5 1.15"/>
  <path d="M27 29.174 L19.5 30.906" fill="none" stroke="#5C7B99" stroke-width="1" clip-path="url(#c21)" stroke-linecap="round" stroke-dasharray="1.5 1.15"/>
  <path d="M27 26.814 L19.5 28.545" fill="none" stroke="#5C7B99" stroke-width="1" clip-path="url(#c21)" stroke-linecap="round" stroke-dasharray="1.5 1.15"/>
  <path d="M20.299 26 L19.5 26.185" fill="none" stroke="#5C7B99" stroke-width="1" clip-path="url(#c21)" stroke-linecap="round" stroke-dasharray="1.5 1.15"/>
  <path d="M26 19.5 L38 19.5 L32 27 Z" fill="#E6DCC0" stroke="#2E4258" stroke-width="1.35" stroke-linecap="round" stroke-dasharray="1.7 1.3" transform="rotate(315 32 32)"/>
  <path d="M21.01 18.919 L28.464 21.34" fill="none" stroke="#5C7B99" stroke-width="1" clip-path="url(#c22)" stroke-linecap="round" stroke-dasharray="1.5 1.15"/>
  <path d="M18.919 20.657 L28.464 23.759" fill="none" stroke="#5C7B99" stroke-width="1" clip-path="url(#c22)" stroke-linecap="round" stroke-dasharray="1.5 1.15"/>
  <path d="M18.919 23.076 L28.464 26.177" fill="none" stroke="#5C7B99" stroke-width="1" clip-path="url(#c22)" stroke-linecap="round" stroke-dasharray="1.5 1.15"/>
  <path d="M18.919 25.494 L28.061 28.464" fill="none" stroke="#5C7B99" stroke-width="1" clip-path="url(#c22)" stroke-linecap="round" stroke-dasharray="1.5 1.15"/>
  <path d="M18.919 27.912 L20.618 28.464" fill="none" stroke="#5C7B99" stroke-width="1" clip-path="url(#c22)" stroke-linecap="round" stroke-dasharray="1.5 1.15"/>
</svg>
