<svg xmlns="http://www.w3.org/2000/svg" width="64" height="64" viewBox="0 0 64 64">
  <!-- GENERATED by tools/gen_skin_svg.py from dandelion_bare.svg, family sampler. Do not edit by hand:
       run `python tools/gen_skin_svg.py` and it reports any edit the parent and the
       sampler style do not explain. This is not the parent recoloured: every shape is
       redrawn in the style, and what survives of the parent is its geometry and the
       VALUE of its paint. -->
  <defs>
    <clipPath id="c1"><path d="M6 0 L10 -4 L13 -1.5 L17 -5.5 L20 -2 L24 -5 L27 0 L24 5 L20 2 L17 5.5 L13 1.5 L10 4 Z" transform="translate(32,32) rotate(70)"/></clipPath>
    <clipPath id="c2"><path d="M6 0 L10 -4 L13 -1.5 L17 -5.5 L20 -2 L24 -5 L27 0 L24 5 L20 2 L17 5.5 L13 1.5 L10 4 Z" transform="translate(32,32) rotate(110)"/></clipPath>
    <clipPath id="c3"><circle cx="32" cy="32" r="9.5"/></clipPath>
    <clipPath id="c4"><ellipse cx="28.6" cy="28.6" rx="3.4" ry="2.6"/></clipPath>
    <clipPath id="c5"><circle cx="28.6" cy="32" r="1.5"/></clipPath>
    <clipPath id="c6"><circle cx="35.4" cy="32" r="1.5"/></clipPath>
  </defs>
  <path d="M6 0 L10 -4 L13 -1.5 L17 -5.5 L20 -2 L24 -5 L27 0 L24 5 L20 2 L17 5.5 L13 1.5 L10 4 Z" fill="#E6DCC0" stroke="#2E4258" stroke-width="1.35" stroke-linecap="round" stroke-dasharray="1.7 1.3" transform="translate(32,32) rotate(70)"/>
  <path d="M42.619 37.638 L44.907 38.705" fill="none" stroke="#5C7B99" stroke-width="1" clip-path="url(#c1)" stroke-linecap="round" stroke-dasharray="1.5 1.15"/>
  <path d="M37.177 37.638 L44.907 41.243" fill="none" stroke="#5C7B99" stroke-width="1" clip-path="url(#c1)" stroke-linecap="round" stroke-dasharray="1.5 1.15"/>
  <path d="M31.735 37.638 L44.907 43.78" fill="none" stroke="#5C7B99" stroke-width="1" clip-path="url(#c1)" stroke-linecap="round" stroke-dasharray="1.5 1.15"/>
  <path d="M31.661 40.142 L44.907 46.318" fill="none" stroke="#5C7B99" stroke-width="1" clip-path="url(#c1)" stroke-linecap="round" stroke-dasharray="1.5 1.15"/>
  <path d="M31.661 42.679 L44.907 48.856" fill="none" stroke="#5C7B99" stroke-width="1" clip-path="url(#c1)" stroke-linecap="round" stroke-dasharray="1.5 1.15"/>
  <path d="M31.661 45.217 L44.907 51.394" fill="none" stroke="#5C7B99" stroke-width="1" clip-path="url(#c1)" stroke-linecap="round" stroke-dasharray="1.5 1.15"/>
  <path d="M31.661 47.755 L44.907 53.931" fill="none" stroke="#5C7B99" stroke-width="1" clip-path="url(#c1)" stroke-linecap="round" stroke-dasharray="1.5 1.15"/>
  <path d="M31.661 50.293 L44.907 56.469" fill="none" stroke="#5C7B99" stroke-width="1" clip-path="url(#c1)" stroke-linecap="round" stroke-dasharray="1.5 1.15"/>
  <path d="M31.661 52.831 L41.4 57.372" fill="none" stroke="#5C7B99" stroke-width="1" clip-path="url(#c1)" stroke-linecap="round" stroke-dasharray="1.5 1.15"/>
  <path d="M31.661 55.368 L35.958 57.372" fill="none" stroke="#5C7B99" stroke-width="1" clip-path="url(#c1)" stroke-linecap="round" stroke-dasharray="1.5 1.15"/>
  <path d="M6 0 L10 -4 L13 -1.5 L17 -5.5 L20 -2 L24 -5 L27 0 L24 5 L20 2 L17 5.5 L13 1.5 L10 4 Z" fill="#E6DCC0" stroke="#2E4258" stroke-width="1.35" stroke-linecap="round" stroke-dasharray="1.7 1.3" transform="translate(32,32) rotate(110)"/>
  <path d="M30.936 37.638 L32.339 39.718" fill="none" stroke="#5C7B99" stroke-width="1" clip-path="url(#c2)" stroke-linecap="round" stroke-dasharray="1.5 1.15"/>
  <path d="M28.162 37.638 L32.339 43.831" fill="none" stroke="#5C7B99" stroke-width="1" clip-path="url(#c2)" stroke-linecap="round" stroke-dasharray="1.5 1.15"/>
  <path d="M25.387 37.638 L32.339 47.944" fill="none" stroke="#5C7B99" stroke-width="1" clip-path="url(#c2)" stroke-linecap="round" stroke-dasharray="1.5 1.15"/>
  <path d="M22.613 37.638 L32.339 52.057" fill="none" stroke="#5C7B99" stroke-width="1" clip-path="url(#c2)" stroke-linecap="round" stroke-dasharray="1.5 1.15"/>
  <path d="M19.839 37.638 L32.339 56.17" fill="none" stroke="#5C7B99" stroke-width="1" clip-path="url(#c2)" stroke-linecap="round" stroke-dasharray="1.5 1.15"/>
  <path d="M19.093 40.646 L30.375 57.372" fill="none" stroke="#5C7B99" stroke-width="1" clip-path="url(#c2)" stroke-linecap="round" stroke-dasharray="1.5 1.15"/>
  <path d="M19.093 44.759 L27.6 57.372" fill="none" stroke="#5C7B99" stroke-width="1" clip-path="url(#c2)" stroke-linecap="round" stroke-dasharray="1.5 1.15"/>
  <path d="M19.093 48.872 L24.826 57.372" fill="none" stroke="#5C7B99" stroke-width="1" clip-path="url(#c2)" stroke-linecap="round" stroke-dasharray="1.5 1.15"/>
  <path d="M19.093 52.985 L22.052 57.372" fill="none" stroke="#5C7B99" stroke-width="1" clip-path="url(#c2)" stroke-linecap="round" stroke-dasharray="1.5 1.15"/>
  <circle cx="32" cy="32" r="9.5" fill="#E6DCC0" stroke="#2E4258" stroke-width="1.35" stroke-linecap="round" stroke-dasharray="1.7 1.3"/>
  <path d="M40.333 22.5 L41.329 41.5" fill="none" stroke="#5C7B99" stroke-width="1" clip-path="url(#c3)" stroke-linecap="round" stroke-dasharray="1.5 1.15"/>
  <path d="M38.03 22.5 L39.025 41.5" fill="none" stroke="#5C7B99" stroke-width="1" clip-path="url(#c3)" stroke-linecap="round" stroke-dasharray="1.5 1.15"/>
  <path d="M35.727 22.5 L36.722 41.5" fill="none" stroke="#5C7B99" stroke-width="1" clip-path="url(#c3)" stroke-linecap="round" stroke-dasharray="1.5 1.15"/>
  <path d="M33.423 22.5 L34.419 41.5" fill="none" stroke="#5C7B99" stroke-width="1" clip-path="url(#c3)" stroke-linecap="round" stroke-dasharray="1.5 1.15"/>
  <path d="M31.12 22.5 L32.116 41.5" fill="none" stroke="#5C7B99" stroke-width="1" clip-path="url(#c3)" stroke-linecap="round" stroke-dasharray="1.5 1.15"/>
  <path d="M28.817 22.5 L29.813 41.5" fill="none" stroke="#5C7B99" stroke-width="1" clip-path="url(#c3)" stroke-linecap="round" stroke-dasharray="1.5 1.15"/>
  <path d="M26.514 22.5 L27.51 41.5" fill="none" stroke="#5C7B99" stroke-width="1" clip-path="url(#c3)" stroke-linecap="round" stroke-dasharray="1.5 1.15"/>
  <path d="M24.211 22.5 L25.206 41.5" fill="none" stroke="#5C7B99" stroke-width="1" clip-path="url(#c3)" stroke-linecap="round" stroke-dasharray="1.5 1.15"/>
  <path d="M22.5 33.804 L22.903 41.5" fill="none" stroke="#5C7B99" stroke-width="1" clip-path="url(#c3)" stroke-linecap="round" stroke-dasharray="1.5 1.15"/>
  <ellipse cx="28.6" cy="28.6" rx="3.4" ry="2.6" fill="#E6DCC0" stroke="#2E4258" stroke-width="1.35" stroke-linecap="round" stroke-dasharray="1.7 1.3"/>
  <path d="M32 28.001 L30.299 31.2" fill="none" stroke="#5C7B99" stroke-width="1" clip-path="url(#c4)" stroke-linecap="round" stroke-dasharray="1.5 1.15"/>
  <path d="M30.459 26 L27.694 31.2" fill="none" stroke="#5C7B99" stroke-width="1" clip-path="url(#c4)" stroke-linecap="round" stroke-dasharray="1.5 1.15"/>
  <path d="M27.854 26 L25.2 30.992" fill="none" stroke="#5C7B99" stroke-width="1" clip-path="url(#c4)" stroke-linecap="round" stroke-dasharray="1.5 1.15"/>
  <circle cx="28.6" cy="32" r="1.5" fill="#CDBF9C" stroke="#2E4258" stroke-width="1.35" stroke-linecap="round" stroke-dasharray="1.7 1.3"/>
  <path d="M30.1 32.896 L29.095 33.5" fill="none" stroke="#2E4258" stroke-width="1" clip-path="url(#c5)" stroke-linecap="round" stroke-dasharray="1.5 1.15"/>
  <path d="M29.622 30.5 L27.1 32.015" fill="none" stroke="#2E4258" stroke-width="1" clip-path="url(#c5)" stroke-linecap="round" stroke-dasharray="1.5 1.15"/>
  <circle cx="35.4" cy="32" r="1.5" fill="#CDBF9C" stroke="#2E4258" stroke-width="1.35" stroke-linecap="round" stroke-dasharray="1.7 1.3"/>
  <path d="M33.9 32.2 L36.9 32.2" fill="none" stroke="#2E4258" stroke-width="1" clip-path="url(#c6)" stroke-linecap="round" stroke-dasharray="1.5 1.15"/>
  <path d="M28.8 35.6 Q 32 38.2 35.2 35.6" fill="none" stroke="#2E4258" stroke-width="1.6" stroke-linecap="round" stroke-dasharray="1.5 1.15"/>
</svg>
