<svg xmlns="http://www.w3.org/2000/svg" width="64" height="64" viewBox="0 0 64 64">
  <!-- GENERATED by tools/gen_skin_svg.py from sticky_sundew.svg, family frost. Do not edit by hand:
       run `python tools/gen_skin_svg.py` and it reports any edit the parent and the
       frost ramp do not explain. Parent geometry is copied verbatim, paint is remapped
       onto the ramp, and the family motif is the appended group at the end. -->
  <!-- Sticky Sundew: the fourth plant, control not combat. A top-down rosette of
       six spoon-shaped paddles, each strung with two dew beads.

       Two deliberate departures from the other three plants, so it is not read as
       "a green sunflower" at 64px:
         * six broad clubs, not twelve narrow petals — a rosette silhouette rather
           than a flower's, with the gaps between paddles wide enough to see grass
           through.
         * the beads use the blue-grey family (#758C8E / #89A4A6 / #A3C3C6), which
           nothing else in this garden touches. Corn and Sunflower are gold, Chomp
           is green-and-maw-red, the pests are red and carapace grey. The dew is
           the only pale-blue thing on the board, and it is the same hue the plant
           paints its patch on the ground in.

       Every material is three values at most — dark rim / base / light facet —
       per STYLE.md, and each outline is that shape's own hue darkened, never
       black. Geometry is pinned by the sprite gate as much as by the drawing:
         * the paddle reaches y = -24 with a 2px rim, so the content box is
           x 8.8..55.2, y 7..57 — centred on x = 32 to well inside the 1px the
           bilateral-axis check allows, with 7px of margin at the tightest edge.
         * every bead sits entirely INSIDE its paddle's fill (bead A clears the
           tip curve by ~1.3px, bead B clears the crown's rim by ~1.3px), so no
           pixel ever mixes bead grey, paddle green and a dark rim at once. Three
           unrelated hues meeting in one anti-aliased pixel is the one way a
           palette-conformant drawing fails the palette test.
         * the two beads on a paddle may touch — they share a rim colour, so that
           junction is still only two hues deep. -->

  <!-- the six paddles. Drawn first so their bases are covered by the crown. -->
  <g transform="translate(32,32)" fill="#87CEF2" stroke="#0C618C" stroke-width="2"
     stroke-linejoin="round" stroke-linecap="round">
    <g transform="rotate(0)">
      <path d="M -4 -7 Q -5.5 -16 -8 -21 Q 0 -27 8 -21 Q 5.5 -16 4 -7 Z"/>
      <circle cx="0" cy="-19" r="2.5" fill="#50B3E4" stroke="#147BAF" stroke-width="1.4"/>
      <ellipse cx="-0.8" cy="-19.9" rx="1.1" ry="0.85" fill="#B9E4FA" stroke="none"/>
      <circle cx="0" cy="-13.2" r="1.7" fill="#50B3E4" stroke="#147BAF" stroke-width="1.4"/>
    </g>
    <g transform="rotate(60)">
      <path d="M -4 -7 Q -5.5 -16 -8 -21 Q 0 -27 8 -21 Q 5.5 -16 4 -7 Z"/>
      <circle cx="0" cy="-19" r="2.5" fill="#50B3E4" stroke="#147BAF" stroke-width="1.4"/>
      <ellipse cx="-0.8" cy="-19.9" rx="1.1" ry="0.85" fill="#B9E4FA" stroke="none"/>
      <circle cx="0" cy="-13.2" r="1.7" fill="#50B3E4" stroke="#147BAF" stroke-width="1.4"/>
    </g>
    <g transform="rotate(120)">
      <path d="M -4 -7 Q -5.5 -16 -8 -21 Q 0 -27 8 -21 Q 5.5 -16 4 -7 Z"/>
      <circle cx="0" cy="-19" r="2.5" fill="#50B3E4" stroke="#147BAF" stroke-width="1.4"/>
      <ellipse cx="-0.8" cy="-19.9" rx="1.1" ry="0.85" fill="#B9E4FA" stroke="none"/>
      <circle cx="0" cy="-13.2" r="1.7" fill="#50B3E4" stroke="#147BAF" stroke-width="1.4"/>
    </g>
    <g transform="rotate(180)">
      <path d="M -4 -7 Q -5.5 -16 -8 -21 Q 0 -27 8 -21 Q 5.5 -16 4 -7 Z"/>
      <circle cx="0" cy="-19" r="2.5" fill="#50B3E4" stroke="#147BAF" stroke-width="1.4"/>
      <ellipse cx="-0.8" cy="-19.9" rx="1.1" ry="0.85" fill="#B9E4FA" stroke="none"/>
      <circle cx="0" cy="-13.2" r="1.7" fill="#50B3E4" stroke="#147BAF" stroke-width="1.4"/>
    </g>
    <g transform="rotate(240)">
      <path d="M -4 -7 Q -5.5 -16 -8 -21 Q 0 -27 8 -21 Q 5.5 -16 4 -7 Z"/>
      <circle cx="0" cy="-19" r="2.5" fill="#50B3E4" stroke="#147BAF" stroke-width="1.4"/>
      <ellipse cx="-0.8" cy="-19.9" rx="1.1" ry="0.85" fill="#B9E4FA" stroke="none"/>
      <circle cx="0" cy="-13.2" r="1.7" fill="#50B3E4" stroke="#147BAF" stroke-width="1.4"/>
    </g>
    <g transform="rotate(300)">
      <path d="M -4 -7 Q -5.5 -16 -8 -21 Q 0 -27 8 -21 Q 5.5 -16 4 -7 Z"/>
      <circle cx="0" cy="-19" r="2.5" fill="#50B3E4" stroke="#147BAF" stroke-width="1.4"/>
      <ellipse cx="-0.8" cy="-19.9" rx="1.1" ry="0.85" fill="#B9E4FA" stroke="none"/>
      <circle cx="0" cy="-13.2" r="1.7" fill="#50B3E4" stroke="#147BAF" stroke-width="1.4"/>
    </g>
  </g>

  <!-- crown: the darker foliage-mid green, so the paddles read as sitting on top
       of it rather than merging into it. -->
  <circle cx="32" cy="32" r="8.5" fill="#2896CD" stroke="#0C618C" stroke-width="2"/>

  <!-- face, in the foliage dark rim — the same "features are the object's own hue
       darkened" rule Corn Cobbler and Seed Sunflower use for theirs. -->
  <circle cx="29" cy="30.5" r="1.4" fill="#0C618C"/>
  <circle cx="35" cy="30.5" r="1.4" fill="#0C618C"/>
  <path d="M 28.8 34.2 Q 32 37.2 35.2 34.2" fill="none" stroke="#0C618C"
        stroke-width="1.8" stroke-linecap="round"/>
  <g id="skin_motif_frost" stroke-linejoin="round" stroke-linecap="round">
    <g fill="#87CEF2" stroke="#0C618C" stroke-width="1.4">
      <path d="M 5.4 60 L 9 46 L 12.6 60 Z"/>
      <path d="M 51.4 60 L 55 46 L 58.6 60 Z"/>
      <path d="M 28.4 60 L 32 52 L 35.6 60 Z"/>
    </g>
    <g fill="none" stroke="#2896CD" stroke-width="1">
      <path d="M 9 49 L 9 58"/>
      <path d="M 55 49 L 55 58"/>
      <path d="M 32 54.5 L 32 58"/>
    </g>
    <path d="M 32 3.8 L 34.8 5.35 L 34.8 8.45 L 32 10 L 29.2 8.45 L 29.2 5.35 Z"
          fill="#B9E4FA" stroke="#147BAF" stroke-width="1.2"/>
    <path d="M 32 4.4 L 32 9.4" fill="none" stroke="#50B3E4" stroke-width="1"/>
  </g>
</svg>
