<svg xmlns="http://www.w3.org/2000/svg" width="64" height="64" viewBox="0 0 64 64">
  <!-- GENERATED by tools/gen_sport_svg.py from sticky_sundew.svg. Do not edit by hand:
       `python tools/gen_sport_svg.py --check` fails on any edit this file's
       parent does not explain. Geometry is copied verbatim; only paint moves. -->
  <!-- Sticky Sundew: the fourth plant, control not combat. A top-down rosette of
       six spoon-shaped paddles, each strung with two dew beads.

       Two deliberate departures from the other three plants, so it is not read as
       "a green sunflower" at 64px:
         * six broad clubs, not twelve narrow petals — a rosette silhouette rather
           than a flower's, with the gaps between paddles wide enough to see grass
           through.
         * the beads use the blue-grey family (#758C8E / #89A4A6 / #A3C3C6), which
           nothing else in this garden touches. Corn and Sunflower are gold, Chomp
           is green-and-maw-red, the pests are red and carapace grey. The dew is
           the only pale-blue thing on the board, and it is the same hue the plant
           paints its patch on the ground in.

       Every material is three values at most — dark rim / base / light facet —
       per STYLE.md, and each outline is that shape's own hue darkened, never
       black. Geometry is pinned by the sprite gate as much as by the drawing:
         * the paddle reaches y = -24 with a 2px rim, so the content box is
           x 8.8..55.2, y 7..57 — centred on x = 32 to well inside the 1px the
           bilateral-axis check allows, with 7px of margin at the tightest edge.
         * every bead sits entirely INSIDE its paddle's fill (bead A clears the
           tip curve by ~1.3px, bead B clears the crown's rim by ~1.3px), so no
           pixel ever mixes bead grey, paddle green and a dark rim at once. Three
           unrelated hues meeting in one anti-aliased pixel is the one way a
           palette-conformant drawing fails the palette test.
         * the two beads on a paddle may touch — they share a rim colour, so that
           junction is still only two hues deep. -->

  <!-- the six paddles. Drawn first so their bases are covered by the crown. -->
  <g transform="translate(32,32)" fill="#C0EC5A" stroke="#2A3A05" stroke-width="2"
     stroke-linejoin="round" stroke-linecap="round">
    <g transform="rotate(0)">
      <path d="M -4 -7 Q -5.5 -16 -8 -21 Q 0 -27 8 -21 Q 5.5 -16 4 -7 Z"/>
      <circle cx="0" cy="-19" r="2.5" fill="#9DD618" stroke="#597A0B" stroke-width="1.4"/>
      <ellipse cx="-0.8" cy="-19.9" rx="1.1" ry="0.85" fill="#E7FCB6" stroke="none"/>
      <circle cx="0" cy="-13.2" r="1.7" fill="#9DD618" stroke="#597A0B" stroke-width="1.4"/>
    </g>
    <g transform="rotate(60)">
      <path d="M -4 -7 Q -5.5 -16 -8 -21 Q 0 -27 8 -21 Q 5.5 -16 4 -7 Z"/>
      <circle cx="0" cy="-19" r="2.5" fill="#9DD618" stroke="#597A0B" stroke-width="1.4"/>
      <ellipse cx="-0.8" cy="-19.9" rx="1.1" ry="0.85" fill="#E7FCB6" stroke="none"/>
      <circle cx="0" cy="-13.2" r="1.7" fill="#9DD618" stroke="#597A0B" stroke-width="1.4"/>
    </g>
    <g transform="rotate(120)">
      <path d="M -4 -7 Q -5.5 -16 -8 -21 Q 0 -27 8 -21 Q 5.5 -16 4 -7 Z"/>
      <circle cx="0" cy="-19" r="2.5" fill="#9DD618" stroke="#597A0B" stroke-width="1.4"/>
      <ellipse cx="-0.8" cy="-19.9" rx="1.1" ry="0.85" fill="#E7FCB6" stroke="none"/>
      <circle cx="0" cy="-13.2" r="1.7" fill="#9DD618" stroke="#597A0B" stroke-width="1.4"/>
    </g>
    <g transform="rotate(180)">
      <path d="M -4 -7 Q -5.5 -16 -8 -21 Q 0 -27 8 -21 Q 5.5 -16 4 -7 Z"/>
      <circle cx="0" cy="-19" r="2.5" fill="#9DD618" stroke="#597A0B" stroke-width="1.4"/>
      <ellipse cx="-0.8" cy="-19.9" rx="1.1" ry="0.85" fill="#E7FCB6" stroke="none"/>
      <circle cx="0" cy="-13.2" r="1.7" fill="#9DD618" stroke="#597A0B" stroke-width="1.4"/>
    </g>
    <g transform="rotate(240)">
      <path d="M -4 -7 Q -5.5 -16 -8 -21 Q 0 -27 8 -21 Q 5.5 -16 4 -7 Z"/>
      <circle cx="0" cy="-19" r="2.5" fill="#9DD618" stroke="#597A0B" stroke-width="1.4"/>
      <ellipse cx="-0.8" cy="-19.9" rx="1.1" ry="0.85" fill="#E7FCB6" stroke="none"/>
      <circle cx="0" cy="-13.2" r="1.7" fill="#9DD618" stroke="#597A0B" stroke-width="1.4"/>
    </g>
    <g transform="rotate(300)">
      <path d="M -4 -7 Q -5.5 -16 -8 -21 Q 0 -27 8 -21 Q 5.5 -16 4 -7 Z"/>
      <circle cx="0" cy="-19" r="2.5" fill="#9DD618" stroke="#597A0B" stroke-width="1.4"/>
      <ellipse cx="-0.8" cy="-19.9" rx="1.1" ry="0.85" fill="#E7FCB6" stroke="none"/>
      <circle cx="0" cy="-13.2" r="1.7" fill="#9DD618" stroke="#597A0B" stroke-width="1.4"/>
    </g>
  </g>

  <!-- crown: the darker foliage-mid green, so the paddles read as sitting on top
       of it rather than merging into it. -->
  <circle cx="32" cy="32" r="8.5" fill="#88BA12" stroke="#2A3A05" stroke-width="2"/>

  <!-- face, in the foliage dark rim — the same "features are the object's own hue
       darkened" rule Corn Cobbler and Seed Sunflower use for theirs. -->
  <circle cx="29" cy="30.5" r="1.4" fill="#2A3A05"/>
  <circle cx="35" cy="30.5" r="1.4" fill="#2A3A05"/>
  <path d="M 28.8 34.2 Q 32 37.2 35.2 34.2" fill="none" stroke="#2A3A05"
        stroke-width="1.8" stroke-linecap="round"/>
</svg>
